<svg width="449" height="513" viewBox="0 0 449 513" fill="none" xmlns="http://www.w3.org/2000/svg">
<path d="M32.0039 192.008C14.3399 192.008 0.00390625 206.344 0.00390625 224.008V352.008C0.00390625 369.672 14.3399 384.008 32.0039 384.008C49.6679 384.008 64.0039 369.672 64.0039 352.008V224.008C64.0039 206.344 49.6679 192.008 32.0039 192.008Z" fill="#F5DEB3"/>
<path d="M416.004 192.008C398.34 192.008 384.004 206.344 384.004 224.008V352.008C384.004 369.672 398.34 384.008 416.004 384.008C433.668 384.008 448.004 369.672 448.004 352.008V224.008C448.004 206.344 433.668 192.008 416.004 192.008Z" fill="#F5DEB3"/>
<path d="M96.0039 385.863C96.0039 403.527 110.34 417.863 128.004 417.863V480.007C128.004 497.671 142.34 512.007 160.004 512.007C177.668 512.007 192.004 497.671 192.004 480.007V417.863H256.004V480.007C256.004 497.671 270.34 512.007 288.004 512.007C305.668 512.007 320.004 497.671 320.004 480.007V417.863C337.668 417.863 352.004 403.527 352.004 385.863V193.863H96.0039V385.863V385.863Z" fill="#F5DEB3"/>
<path d="M303.876 60.7111L332.356 26.1831C337.988 19.3671 337.028 9.28711 330.212 3.65511C323.364 -1.94489 313.316 -1.01689 307.684 5.79911L276.548 43.5271C260.484 36.2631 242.788 32.0071 224.004 32.0071C204.964 32.0071 187.044 36.4231 170.82 43.9111L140.516 6.02311C134.98 -0.856894 124.932 -2.00889 118.02 3.52711C111.14 9.06311 110.02 19.1111 115.524 26.0231L143.62 61.1591C114.788 84.6151 96.0039 119.943 96.0039 160.007H352.004C352.004 119.687 332.996 84.1671 303.876 60.7111ZM192.004 112.007C183.172 112.007 176.004 104.839 176.004 96.0071C176.004 87.1751 183.172 80.0071 192.004 80.0071C200.836 80.0071 208.004 87.1751 208.004 96.0071C208.004 104.839 200.836 112.007 192.004 112.007ZM256.004 112.007C247.172 112.007 240.004 104.839 240.004 96.0071C240.004 87.1751 247.172 80.0071 256.004 80.0071C264.836 80.0071 272.004 87.1751 272.004 96.0071C272.004 104.839 264.836 112.007 256.004 112.007Z" fill="#F5DEB3"/>
</svg>
