<svg width="368" height="368" viewBox="0 0 368 368" fill="none" xmlns="http://www.w3.org/2000/svg">
<path d="M344 0H24C10.7695 0 0 10.7695 0 24V344C0 357.23 10.7695 368 24 368H344C357.23 368 368 357.23 368 344V24C368 10.7695 357.23 0 344 0ZM352 344C352 348.414 348.406 352 344 352H24C19.5938 352 16 348.414 16 344V24C16 19.5938 19.5938 16 24 16H344C348.406 16 352 19.5938 352 24V344Z" fill="#F5DEB3"/>
<path d="M216 64H104C99.5859 64 96 67.5859 96 72V296C96 300.426 99.5859 304 104 304H216C246.879 304 272 278.871 272 248V232C272 211.656 261.098 193.809 244.824 184C261.098 174.191 272 156.344 272 136V120C272 89.1211 246.879 64 216 64ZM256 232V248C256 270.055 238.055 288 216 288H112V192H216C238.055 192 256 209.945 256 232ZM256 136C256 158.055 238.055 176 216 176H112V80H216C238.055 80 256 97.9453 256 120V136Z" fill="#F5DEB3"/>
</svg>
