<svg width="901" height="787" viewBox="0 0 901 787" fill="none" xmlns="http://www.w3.org/2000/svg">
<g id="coder">
<g clip-path="url(#clip0)">
<g id="coder-flower">
<path id="Vector" d="M130.75 276C130.75 276 204.04 349.29 162.67 458C121.3 566.71 233.58 747.64 233.58 747.64C233.58 747.64 232.38 747.46 230.15 747.07C79.63 720.5 4.84002 548.35 88.58 420.5C119.66 372.91 145.2 317.14 130.75 276Z" fill="#F38181"/>
<path id="Vector_2" d="M130.75 276C130.75 276 172.12 365.84 130.75 439.12C89.3799 512.4 123.66 718.12 233.59 747.64" stroke="#535461" stroke-width="2" stroke-miterlimit="10"/>
<path id="Vector_3" d="M0.209961 572.42C0.209961 572.42 83.84 559.1 91.46 634.05C99.08 709 252.28 719.39 252.28 719.39C252.28 719.39 251.28 720.07 249.41 721.3C122.92 804.3 2.00996 774.19 20.24 663.94C27.01 622.95 26.45 581.78 0.209961 572.42Z" fill="#F38181"/>
<path id="Vector_4" d="M0.209961 572.42C0.209961 572.42 65.12 586.67 59.79 645.69C54.46 704.71 156.19 775.5 252.28 719.39" stroke="#535461" stroke-width="2" stroke-miterlimit="10"/>
</g>
<g id="coder-background">
<path id="Vector_5" opacity="0.2" d="M815.63 283H763.63V310H815.63V283Z" fill="#6C63FF"/>
<path id="Vector_6" opacity="0.2" d="M819.63 316H767.63V343H819.63V316Z" fill="#6C63FF"/>
<path id="Vector_7" opacity="0.2" d="M776.63 87H724.63V114H776.63V87Z" fill="#6C63FF"/>
<path id="Vector_8" opacity="0.2" d="M813.63 118H761.63V145H813.63V118Z" fill="#6C63FF"/>
<path id="Vector_9" opacity="0.2" d="M713.63 89H661.63V116H713.63V89Z" fill="#6C63FF"/>
<path id="Vector_10" opacity="0.2" d="M880.63 149H828.63V176H880.63V149Z" fill="#6C63FF"/>
<path id="Vector_11" opacity="0.2" d="M817.63 151H765.63V178H817.63V151Z" fill="#6C63FF"/>
<path id="Vector_12" opacity="0.2" d="M750.63 120H698.63V147H750.63V120Z" fill="#6C63FF"/>
<path id="Vector_13" opacity="0.2" d="M877.63 357H825.63V384H877.63V357Z" fill="#6C63FF"/>
<path id="Vector_14" opacity="0.2" d="M814.63 359H762.63V386H814.63V359Z" fill="#6C63FF"/>
<path id="Vector_15" opacity="0.2" d="M52.6299 284H0.629883V311H52.6299V284Z" fill="#6C63FF"/>
<path id="Vector_16" opacity="0.2" d="M89.6299 315H37.6299V342H89.6299V315Z" fill="#6C63FF"/>
<path id="Vector_17" opacity="0.2" d="M370.63 0H318.63V27H370.63V0Z" fill="#6C63FF"/>
<path id="Vector_18" opacity="0.2" d="M780.63 498H728.63V525H780.63V498Z" fill="#6C63FF"/>
<path id="Vector_19" opacity="0.2" d="M93.6299 348H41.6299V375H93.6299V348Z" fill="#6C63FF"/>
<path id="Vector_20" opacity="0.2" d="M407.63 31H355.63V58H407.63V31Z" fill="#6C63FF"/>
<path id="Vector_21" opacity="0.2" d="M217.63 214H165.63V241H217.63V214Z" fill="#6C63FF"/>
<path id="Vector_22" opacity="0.2" d="M254.63 245H202.63V272H254.63V245Z" fill="#6C63FF"/>
<path id="Vector_23" opacity="0.2" d="M353.63 228H301.63V255H353.63V228Z" fill="#6C63FF"/>
<path id="Vector_24" opacity="0.2" d="M258.63 278H206.63V305H258.63V278Z" fill="#6C63FF"/>
<path id="Vector_25" opacity="0.2" d="M850.63 498H798.63V525H850.63V498Z" fill="#6C63FF"/>
</g>
<g id="coder-body">
<path id="Vector_26" d="M449.02 233.29C449.02 233.29 467.02 327.36 449.02 352.73C431.02 378.1 504.02 388.14 504.02 388.14L579.58 360.66L590.15 293.01C590.15 293.01 544.15 267.11 553.68 214.79L449.02 233.29Z" fill="#F7C4A7"/>
<path id="Vector_27" d="M672.04 550.39C672.04 550.39 676.8 571 650.9 574.7C635.607 576.95 620.055 576.764 604.82 574.15L599.11 522.38H659.36L672.04 550.39Z" fill="#F7C4A7"/>
<path id="Vector_28" d="M214.7 524.01C214.7 524.01 203.26 570.5 229.16 574.7C255.06 578.9 350.16 578.93 350.16 578.93V523.93L307.1 533.13L266.68 494.37L214.7 524.01Z" fill="#F7C4A7"/>
<path id="Vector_29" d="M454.39 259.576L353.18 280.976C353.18 280.976 314.6 282.566 289.76 333.826C264.92 385.086 211 531.506 211 531.506C211 531.506 257 484.996 310.89 534.676L346.83 469.676L338.9 572.706H617.39V524.086C617.39 524.086 675.52 555.266 671.3 572.706C671.3 572.706 721.05 444.526 710.3 386.276C707.064 368.268 705.079 350.058 704.36 331.776C703.725 316.718 698.446 302.227 689.246 290.29C680.047 278.353 667.379 269.556 652.98 265.106C647.74 263.496 641.98 261.986 635.58 260.636C575.86 247.956 560.58 260.636 560.58 260.636C560.58 260.636 549.01 298.276 549.22 315.336C549.48 337.266 518.04 351.806 518.04 351.806C518.04 351.806 471.53 340.706 469.42 331.726C467.31 322.746 450.67 270.146 454.39 259.576Z" fill="#575988"/>
<path id="Vector_30" d="M338.82 553.3H644.29C651.018 553.3 657.471 555.973 662.229 560.731C666.987 565.489 669.66 571.941 669.66 578.67V578.67H313.46C313.46 571.943 316.132 565.492 320.887 560.734C325.643 555.977 332.093 553.303 338.82 553.3V553.3Z" fill="#535461"/>
<path id="Vector_31" opacity="0.1" d="M619.98 349.83C619.98 349.83 647.46 384.71 629.49 415.89C611.52 447.07 612.58 522.12 612.58 522.12" fill="black"/>
<path id="Vector_32" opacity="0.1" d="M363.13 387.88C363.13 387.88 347.28 430.16 369.47 468.21C391.66 506.26 349.92 522.12 349.92 522.12" fill="black"/>
<path id="Vector_33" d="M369.9 378.89H613.22C618.341 378.89 623.413 379.899 628.145 381.859C632.876 383.819 637.176 386.691 640.797 390.313C644.419 393.934 647.291 398.234 649.251 402.965C651.211 407.697 652.22 412.768 652.22 417.89V559.11H330.9V417.89C330.9 407.547 335.009 397.627 342.323 390.313C349.637 382.999 359.556 378.89 369.9 378.89V378.89Z" fill="#535461"/>
<path id="Vector_34" d="M491.29 495.96C501.8 495.96 510.32 487.44 510.32 476.93C510.32 466.42 501.8 457.9 491.29 457.9C480.78 457.9 472.26 466.42 472.26 476.93C472.26 487.44 480.78 495.96 491.29 495.96Z" fill="white"/>
</g>
<g id="coder-face">
<path id="Vector_35" opacity="0.1" d="M558 257.08C553.749 245.044 552.796 232.089 555.24 219.56L450.58 238.05C450.58 238.05 452.09 245.96 453.8 257.81C460.562 264.827 468.681 270.395 477.663 274.176C486.645 277.957 496.302 279.872 506.047 279.803C515.792 279.735 525.421 277.685 534.349 273.779C543.277 269.873 551.317 264.191 557.98 257.08H558Z" fill="black"/>
<path id="Vector_36" d="M503.71 57.57C523.753 57.57 542.974 65.5318 557.146 79.7039C571.318 93.8761 579.28 113.098 579.28 133.14V165.38H428.14V133.14C428.14 113.098 436.102 93.8761 450.274 79.7039C464.446 65.5318 483.668 57.57 503.71 57.57V57.57Z" fill="#E14B5A"/>
<path id="Vector_37" d="M504.24 235.14C551.814 235.14 590.38 208.64 590.38 175.95C590.38 143.26 551.814 116.76 504.24 116.76C456.666 116.76 418.1 143.26 418.1 175.95C418.1 208.64 456.666 235.14 504.24 235.14Z" fill="#E14B5A"/>
<path id="Vector_38" d="M575.85 203.17C575.768 222.029 568.278 240.1 554.994 253.487C541.711 266.873 523.698 274.504 504.841 274.732C485.983 274.96 467.791 267.768 454.188 254.707C440.584 241.646 432.658 223.761 432.12 204.91C432.12 204.33 432.12 203.75 432.12 203.17C432.117 189.712 435.891 176.523 443.014 165.104C450.137 153.686 460.322 144.496 472.41 138.58C474.563 137.527 476.777 136.58 479.05 135.74C490.874 131.393 503.627 130.208 516.05 132.3V132.3C531.971 135.011 546.513 143.009 557.329 155.002C568.145 166.996 574.603 182.285 575.66 198.4C575.787 199.98 575.85 201.57 575.85 203.17Z" fill="#F7C4A7"/>
<path id="Vector_39" d="M478.94 135.8L479.04 135.74C476.767 136.58 474.553 137.527 472.4 138.58C460.312 144.496 450.127 153.686 443.004 165.104C435.881 176.523 432.107 189.712 432.11 203.17C432.11 203.75 432.11 204.33 432.11 204.91C434.345 204.85 436.542 204.322 438.56 203.36C456.08 195.18 466.56 170.16 470.72 152.71C472.22 146.5 473.63 139.43 478.94 135.8Z" fill="#632652"/>
<path id="Vector_40" d="M533.95 137.82C528.261 135.207 522.253 133.354 516.08 132.31C521.142 133.475 525.663 136.315 528.91 140.37C530.501 142.534 531.821 144.885 532.84 147.37C523.275 143.188 512.915 141.133 502.477 141.349C492.04 141.565 481.774 144.046 472.39 148.62C476.9 158.51 490.89 163.9 500.23 167.51C510.457 171.457 520.79 175.067 531.23 178.34L521.99 170.84L542.86 174.16C543.085 170.007 542.591 165.845 541.4 161.86C545.4 165.08 550.7 166.16 555.04 168.86C563.17 173.99 566.56 183.86 570.99 192.41C572.16 194.67 573.54 196.98 575.65 198.41C574.797 185.492 570.472 173.044 563.133 162.38C555.793 151.716 545.711 143.231 533.95 137.82V137.82Z" fill="#632652"/>
<path id="Vector_41" d="M580.62 170.35C587.293 170.35 593.693 173.001 598.411 177.719C603.129 182.438 605.78 188.837 605.78 195.51V197.13C605.78 203.803 603.129 210.202 598.411 214.921C593.693 219.639 587.293 222.29 580.62 222.29V222.29V170.35Z" fill="#FFD037"/>
<path id="Vector_42" d="M587.11 173.6C587.11 170.463 584.567 167.92 581.43 167.92C578.293 167.92 575.75 170.463 575.75 173.6V219.05C575.75 222.187 578.293 224.73 581.43 224.73C584.567 224.73 587.11 222.187 587.11 219.05V173.6Z" fill="#6A5C99"/>
<path id="Vector_43" d="M409.02 185.77H416.32V144.38H409.02V185.77Z" fill="#6A5C99"/>
<path id="Vector_44" d="M426.06 223.1C419.387 223.1 412.988 220.449 408.269 215.731C403.551 211.012 400.9 204.613 400.9 197.94V196.32C400.9 193.016 401.551 189.744 402.815 186.692C404.08 183.639 405.933 180.865 408.269 178.529C410.606 176.193 413.379 174.34 416.432 173.075C419.484 171.811 422.756 171.16 426.06 171.16V171.16V223.1Z" fill="#FFD037"/>
<path id="Vector_45" d="M419.57 219.85C419.57 222.987 422.113 225.53 425.25 225.53C428.387 225.53 430.93 222.987 430.93 219.85V174.4C430.93 171.263 428.387 168.72 425.25 168.72C422.113 168.72 419.57 171.263 419.57 174.4V219.85Z" fill="#6A5C99"/>
<path id="Vector_46" d="M589.5 99.33C579.61 78.77 558.07 53.91 511.64 51.92V51.86H511.08L494.63 52.64V52.72C448.51 54.84 427.07 79.61 417.21 100.1C410.643 113.99 407.157 129.136 406.99 144.5L412.67 144.36L418.35 144.23C418.595 130.552 421.741 117.082 427.58 104.71C440.1 78.99 463.14 65.32 496.05 64.05L510.6 63.24C543.53 64.5 566.58 78.19 579.09 103.9C584.939 116.276 588.092 129.754 588.34 143.44L594.02 143.57L599.7 143.71C599.537 128.355 596.057 113.216 589.5 99.33V99.33Z" fill="#FFD037"/>
<path id="Vector_47" d="M423.91 189.69C423.91 189.69 497.91 97.69 583.52 189.69L576.12 169.08C576.12 169.08 535.95 110.42 507.42 123.08C478.89 135.74 450.87 144.75 450.87 144.75L423.91 189.69Z" fill="#E14B5A"/>
<path id="Vector_48" opacity="0.1" d="M428.14 148.2C428.14 148.2 500.86 75.52 579.29 146.87" stroke="black" stroke-miterlimit="10"/>
<path id="Vector_49" opacity="0.1" d="M423.91 191.32C423.91 191.32 497.91 99.32 583.52 191.32L576.12 170.71C576.12 170.71 535.95 112.05 507.42 124.71C478.89 137.37 450.87 146.38 450.87 146.38L423.91 191.32Z" fill="black"/>
<path id="Vector_50" d="M597.66 143.57H590.36V184.96H597.66V143.57Z" fill="#6A5C99"/>
</g>
<g id="coder-table">
<path id="Vector_51" d="M848.99 579H74.28V787H848.99V579Z" fill="#D6D6E3"/>
<path id="Vector_52" opacity="0.1" d="M848.99 593H74.28V620H848.99V593Z" fill="black"/>
<path id="Vector_53" d="M900.94 576H22.3101V603H900.94V576Z" fill="#D6D6E3"/>
</g>
</g>
</g>
<defs>
<clipPath id="clip0">
<rect width="900.94" height="787" fill="white"/>
</clipPath>
</defs>
</svg>
