<svg width="800" height="687" viewBox="0 0 800 687" fill="none" xmlns="http://www.w3.org/2000/svg">
    <g id="coder">
    <g clip-path="url(#clip0)">
    <g id="coder-flower">
    </g>
    <g id="coder-body">
    <path id="Vector_5" d="M398.712 203.647C398.712 203.647 414.696 285.764 398.712 307.91C382.729 330.057 447.55 338.821 447.55 338.821L514.645 314.833L524.03 255.779C524.03 255.779 483.184 233.17 491.646 187.498L398.712 203.647Z" fill="#F7C4A7"/>
    <path id="Vector_6" d="M596.746 480.455C596.746 480.455 600.972 498.446 577.974 501.676C564.395 503.64 550.585 503.478 537.057 501.196L531.987 456.004H585.486L596.746 480.455Z" fill="#F7C4A7"/>
    <path id="Vector_7" d="M190.645 457.427C190.645 457.427 180.487 498.01 203.485 501.676C226.483 505.342 310.928 505.368 310.928 505.368V457.357L272.693 465.388L236.802 431.553L190.645 457.427Z" fill="#F7C4A7"/>
    <path id="Vector_8" d="M403.481 226.593L313.61 245.273C313.61 245.273 279.353 246.661 257.296 291.408C235.239 336.155 187.36 463.97 187.36 463.97C187.36 463.97 228.206 423.37 276.058 466.737L307.972 409.996L300.93 499.935H548.219V457.493C548.219 457.493 599.836 484.711 596.089 499.935C596.089 499.935 640.265 388.042 630.719 337.194C627.845 321.474 626.083 305.578 625.445 289.619C624.881 276.475 620.193 263.824 612.024 253.404C603.855 242.984 592.606 235.305 579.821 231.42C575.168 230.015 570.054 228.696 564.371 227.518C511.341 216.449 497.773 227.518 497.773 227.518C497.773 227.518 487.5 260.375 487.686 275.268C487.917 294.411 460 307.103 460 307.103C460 307.103 418.7 297.414 416.827 289.575C414.953 281.736 400.178 235.82 403.481 226.593Z" fill="#41B3A3"/>
    <path id="Vector_9" d="M300.859 482.995H572.105C578.079 482.995 583.809 485.328 588.034 489.482C592.259 493.635 594.632 499.268 594.632 505.141V505.141H278.34C278.34 499.269 280.713 493.638 284.935 489.485C289.158 485.332 294.886 482.997 300.859 482.995V482.995Z" fill="#535461"/>
    <path id="Vector_10" opacity="0.1" d="M550.518 305.379C550.518 305.379 574.92 335.827 558.963 363.045C543.006 390.263 543.947 455.777 543.947 455.777" fill="black"/>
    <path id="Vector_11" opacity="0.1" d="M322.445 338.594C322.445 338.594 308.371 375.502 328.075 408.717C347.779 441.932 310.715 455.777 310.715 455.777" fill="black"/>
    <path id="Vector_12" d="M328.457 330.746H544.516C549.063 330.746 553.567 331.627 557.768 333.338C561.97 335.049 565.787 337.557 569.003 340.718C572.219 343.879 574.77 347.632 576.51 351.763C578.25 355.893 579.146 360.32 579.146 364.791V488.067H293.826V364.791C293.826 355.762 297.475 347.102 303.969 340.718C310.464 334.333 319.272 330.746 328.457 330.746V330.746Z" fill="#535461"/>
    <path id="Vector_13" d="M436.247 432.941C445.579 432.941 453.144 425.504 453.144 416.329C453.144 407.154 445.579 399.717 436.247 399.717C426.914 399.717 419.349 407.154 419.349 416.329C419.349 425.504 426.914 432.941 436.247 432.941Z" fill="wheat"/>
    </g>
    <g id="coder-face">
    <path id="Vector_14" opacity="0.1" d="M495.482 224.414C491.707 213.907 490.861 202.599 493.032 191.662L400.098 207.802C400.098 207.802 401.438 214.707 402.957 225.051C408.962 231.177 416.171 236.038 424.146 239.338C432.122 242.639 440.697 244.31 449.35 244.25C458.003 244.191 466.553 242.401 474.481 238.991C482.409 235.581 489.548 230.622 495.465 224.414H495.482Z" fill="black"/>
    <path id="Vector_15" d="M447.275 50.2549C465.072 50.2549 482.14 57.205 494.724 69.5764C507.309 81.9477 514.378 98.7269 514.378 116.223V144.366H380.172V116.223C380.172 98.7269 387.242 81.9477 399.826 69.5764C412.41 57.205 429.478 50.2549 447.275 50.2549V50.2549Z" fill="#E14B5A"/>
    <path id="Vector_16" d="M447.746 205.262C489.99 205.262 524.235 182.129 524.235 153.593C524.235 125.057 489.99 101.924 447.746 101.924C405.502 101.924 371.257 125.057 371.257 153.593C371.257 182.129 405.502 205.262 447.746 205.262Z" fill="#E14B5A"/>
    <path id="Vector_17" d="M511.333 177.354C511.26 193.817 504.609 209.591 492.813 221.277C481.018 232.963 465.024 239.624 448.279 239.823C431.534 240.022 415.381 233.744 403.301 222.343C391.222 210.941 384.184 195.329 383.706 178.873C383.706 178.367 383.706 177.86 383.706 177.354C383.703 165.606 387.055 154.093 393.379 144.125C399.704 134.158 408.748 126.135 419.482 120.971C421.394 120.052 423.359 119.225 425.378 118.492C435.877 114.698 447.202 113.663 458.232 115.489V115.489C472.37 117.856 485.283 124.837 494.887 135.307C504.491 145.776 510.225 159.123 511.164 173.19C511.276 174.57 511.333 175.957 511.333 177.354Z" fill="#F7C4A7"/>
    <path id="Vector_18" d="M425.28 118.545L425.369 118.492C423.351 119.225 421.385 120.052 419.473 120.971C408.739 126.135 399.695 134.158 393.371 144.125C387.046 154.093 383.694 165.606 383.697 177.354C383.697 177.861 383.697 178.367 383.697 178.873C385.682 178.82 387.633 178.359 389.425 177.52C404.982 170.379 414.288 148.539 417.981 133.306C419.313 127.885 420.565 121.713 425.28 118.545Z" fill="#535461"/>
    <path id="Vector_19" d="M474.127 120.308C469.076 118.027 463.74 116.409 458.259 115.498C462.754 116.515 466.769 118.994 469.652 122.534C471.065 124.423 472.237 126.475 473.141 128.644C464.648 124.994 455.449 123.2 446.181 123.389C436.913 123.577 427.797 125.743 419.464 129.736C423.469 138.369 435.891 143.074 444.185 146.225C453.266 149.671 462.441 152.822 471.712 155.679L463.507 149.132L482.039 152.03C482.238 148.405 481.8 144.772 480.742 141.293C484.294 144.104 489 145.047 492.854 147.404C500.073 151.882 503.083 160.498 507.017 167.961C508.056 169.934 509.281 171.951 511.155 173.199C510.398 161.923 506.558 151.057 500.04 141.747C493.523 132.438 484.57 125.031 474.127 120.308V120.308Z" fill="#535461"/>
    <path id="Vector_20" d="M515.568 148.704C521.494 148.704 527.176 151.018 531.366 155.137C535.556 159.256 537.909 164.843 537.909 170.668V172.082C537.909 177.907 535.556 183.493 531.366 187.612C527.176 191.731 521.494 194.045 515.568 194.045V194.045V148.704Z" fill="#F5E5C7"/>
    <path id="Vector_21" d="M521.331 151.542C521.331 148.803 519.073 146.583 516.288 146.583C513.502 146.583 511.244 148.803 511.244 151.542V191.216C511.244 193.955 513.502 196.175 516.288 196.175C519.073 196.175 521.331 193.955 521.331 191.216V151.542Z" fill="#535461"/>
    <path id="Vector_22" d="M363.194 162.165H369.676V126.034H363.194V162.165Z" fill="#535461"/>
    <path id="Vector_23" d="M378.325 194.752C372.4 194.752 366.717 192.438 362.527 188.319C358.338 184.2 355.984 178.614 355.984 172.789V171.375C355.984 168.49 356.562 165.634 357.684 162.97C358.807 160.305 360.453 157.884 362.527 155.844C364.602 153.805 367.065 152.187 369.775 151.083C372.486 149.98 375.391 149.412 378.325 149.412V149.412V194.752Z" fill="#F5E5C7"/>
    <path id="Vector_24" d="M372.562 191.915C372.562 194.653 374.82 196.873 377.606 196.873C380.391 196.873 382.649 194.653 382.649 191.915V152.24C382.649 149.501 380.391 147.282 377.606 147.282C374.82 147.282 372.562 149.501 372.562 152.24V191.915Z" fill="#535461"/>
    <path id="Vector_25" d="M523.453 86.7086C514.672 68.7611 495.545 47.0599 454.317 45.3228V45.2704H453.82L439.213 45.9513V46.0211C398.26 47.8717 379.222 69.4943 370.467 87.3808C364.635 99.5062 361.54 112.728 361.392 126.139L366.435 126.017L371.479 125.903C371.696 113.963 374.49 102.205 379.675 91.405C390.792 68.9531 411.251 57.0201 440.473 55.9115L453.393 55.2044C482.634 56.3043 503.101 68.2548 514.21 90.6979C519.403 101.502 522.203 113.267 522.423 125.214L527.467 125.327L532.511 125.449C532.366 112.045 529.276 98.8301 523.453 86.7086V86.7086Z" fill="#F5E5C7"/>
    <path id="Vector_26" d="M376.416 165.587C376.416 165.587 442.125 85.277 518.143 165.587L511.572 147.596C511.572 147.596 475.903 96.3895 450.569 107.441C425.236 118.492 400.355 126.357 400.355 126.357L376.416 165.587Z" fill="#E14B5A"/>
    <path id="Vector_27" opacity="0.1" d="M380.172 129.369C380.172 129.369 444.744 65.9241 514.387 128.208" stroke="black" stroke-miterlimit="10"/>
    <path id="Vector_28" opacity="0.1" d="M376.416 167.01C376.416 167.01 442.125 86.6999 518.143 167.01L511.572 149.019C511.572 149.019 475.903 97.8123 450.569 108.864C425.236 119.915 400.355 127.78 400.355 127.78L376.416 167.01Z" fill="black"/>
    <path id="Vector_29" d="M530.699 125.327H524.217V161.458H530.699V125.327Z" fill="#535461"/>
    </g>
    <g id="coder-table">
    <path id="Vector_30" d="M753.87 505.429H65.9578V687H753.87V505.429Z" fill="#E27D60"/>
    <path id="Vector_31" opacity="0.1" d="M753.87 517.65H65.9578V541.22H753.87V517.65Z" fill="black"/>
    <path id="Vector_32" d="M800 502.811H19.8105V526.38H800V502.811Z" fill="#E27D60"/>
    </g>
    </g>
    </g>
    <defs>
    <clipPath id="clip0">
    <rect width="800" height="687" fill="white"/>
    </clipPath>
    </defs>
</svg>	