<svg width="125" height="171" viewBox="0 0 125 171" fill="none" xmlns="http://www.w3.org/2000/svg">
<path d="M120.719 92.9154H73.1981L122.854 71.1478L125 49.2656H0L2.18727 71.5753H52.365L4.22041 92.3106L6.46048 115.165H92.3419L89.5269 142.385L62.5 148.69L34.3469 141.9L33.6431 124.925H7.41751L10.6981 158.39L62.5 170.999L114.301 158.39L120.72 92.9116L120.719 92.9154Z" fill="#F5DEB3"/>
<path d="M13.6578 23.9263V8.40634H39.5585V0H4.27344V32.3327H39.5585V23.9263H13.6578Z" fill="#F5DEB3"/>
<path d="M54.7164 12.6501V8.76977H80.477V8.40634V0H45.1914V20.046H70.4821V23.9263H45.1914V32.3327H80.477V23.9263V12.6501H54.7164Z" fill="#F5DEB3"/>
<path d="M94.9743 12.6501V8.76977H120.734V8.40634V0H85.4492V20.046H110.74V23.9263H85.4492V32.3327H120.734V23.9263V12.6501H94.9743Z" fill="#F5DEB3"/>
</svg>
