<svg width="480" height="480" viewBox="0 0 480 480" fill="none" xmlns="http://www.w3.org/2000/svg">
<path d="M334.56 144.08C332.937 139.388 329.892 135.317 325.849 132.436C321.806 129.554 316.965 128.003 312 128H304V112H312C318.359 111.981 324.453 109.446 328.95 104.95C333.446 100.453 335.981 94.3594 336 88V24C335.981 17.6406 333.446 11.5472 328.95 7.05042C324.453 2.55366 318.359 0.0189927 312 0H24C17.6406 0.0189927 11.5472 2.55366 7.05042 7.05042C2.55366 11.5472 0.0189927 17.6406 0 24V88C0.0189927 94.3594 2.55366 100.453 7.05042 104.95C11.5472 109.446 17.6406 111.981 24 112H32V128H24C17.6406 128.019 11.5472 130.554 7.05042 135.05C2.55366 139.547 0.0189927 145.641 0 152V216C0.0189927 222.359 2.55366 228.453 7.05042 232.95C11.5472 237.446 17.6406 239.981 24 240H32V256H24C17.6406 256.019 11.5472 258.554 7.05042 263.05C2.55366 267.547 0.0189927 273.641 0 280V344C0.0189927 350.359 2.55366 356.453 7.05042 360.95C11.5472 365.446 17.6406 367.981 24 368H176V432C176 463.52 252.48 480 328 480C403.52 480 480 463.52 480 432V192C480 161.36 407.92 145.04 334.56 144.08V144.08ZM24 96C21.8783 96 19.8434 95.1571 18.3431 93.6569C16.8429 92.1566 16 90.1217 16 88V24C16 21.8783 16.8429 19.8434 18.3431 18.3431C19.8434 16.8429 21.8783 16 24 16H312C314.122 16 316.157 16.8429 317.657 18.3431C319.157 19.8434 320 21.8783 320 24V88C320 90.1217 319.157 92.1566 317.657 93.6569C316.157 95.1571 314.122 96 312 96H24ZM288 112V128H256V112H288ZM240 112V128H96V112H240ZM80 112V128H48V112H80ZM176 352H24C21.8783 352 19.8434 351.157 18.3431 349.657C16.8429 348.157 16 346.122 16 344V280C16 277.878 16.8429 275.843 18.3431 274.343C19.8434 272.843 21.8783 272 24 272H176V352ZM48 256V240H80V256H48ZM176 256H96V240H176V256ZM176 192V224H24C21.8783 224 19.8434 223.157 18.3431 221.657C16.8429 220.157 16 218.122 16 216V152C16 149.878 16.8429 147.843 18.3431 146.343C19.8434 144.843 21.8783 144 24 144H312C312.381 144.042 312.756 144.122 313.12 144.24C242.72 146.24 176 162.56 176 192ZM464 432C464 442.88 416 464 328 464C240 464 192 442.88 192 432V374.56C218.32 391.28 273.28 400 328 400C382.72 400 437.68 391.28 464 374.56V432ZM464 352C464 362.88 416 384 328 384C240 384 192 362.88 192 352V294.56C218.32 311.28 273.28 320 328 320C382.72 320 437.68 311.28 464 294.56V352ZM464 272C464 282.88 416 304 328 304C240 304 192 282.88 192 272V214.56C218.32 231.28 273.28 240 328 240C382.72 240 437.68 231.28 464 214.56V272ZM328 224C240 224 192 202.88 192 192C192 181.12 240 160 328 160C416 160 464 181.12 464 192C464 202.88 416 224 328 224Z" fill="#F5DEB3"/>
<path d="M320 264H336V280H320V264Z" fill="#F5DEB3"/>
<path d="M320 352H336V368H320V352Z" fill="#F5DEB3"/>
<path d="M320 424H336V440H320V424Z" fill="#F5DEB3"/>
<path d="M72 160H40C37.8783 160 35.8434 160.843 34.3431 162.343C32.8429 163.843 32 165.878 32 168V200C32 202.122 32.8429 204.157 34.3431 205.657C35.8434 207.157 37.8783 208 40 208H72C74.1217 208 76.1566 207.157 77.6569 205.657C79.1571 204.157 80 202.122 80 200V168C80 165.878 79.1571 163.843 77.6569 162.343C76.1566 160.843 74.1217 160 72 160ZM64 192H48V176H64V192Z" fill="#F5DEB3"/>
<path d="M136 160H104C101.878 160 99.8434 160.843 98.3431 162.343C96.8429 163.843 96 165.878 96 168V200C96 202.122 96.8429 204.157 98.3431 205.657C99.8434 207.157 101.878 208 104 208H136C138.122 208 140.157 207.157 141.657 205.657C143.157 204.157 144 202.122 144 200V168C144 165.878 143.157 163.843 141.657 162.343C140.157 160.843 138.122 160 136 160ZM128 192H112V176H128V192Z" fill="#F5DEB3"/>
<path d="M72 32H40C37.8783 32 35.8434 32.8429 34.3431 34.3431C32.8429 35.8434 32 37.8783 32 40V72C32 74.1217 32.8429 76.1566 34.3431 77.6569C35.8434 79.1571 37.8783 80 40 80H72C74.1217 80 76.1566 79.1571 77.6569 77.6569C79.1571 76.1566 80 74.1217 80 72V40C80 37.8783 79.1571 35.8434 77.6569 34.3431C76.1566 32.8429 74.1217 32 72 32ZM64 64H48V48H64V64Z" fill="#F5DEB3"/>
<path d="M136 32H104C101.878 32 99.8434 32.8429 98.3431 34.3431C96.8429 35.8434 96 37.8783 96 40V72C96 74.1217 96.8429 76.1566 98.3431 77.6569C99.8434 79.1571 101.878 80 104 80H136C138.122 80 140.157 79.1571 141.657 77.6569C143.157 76.1566 144 74.1217 144 72V40C144 37.8783 143.157 35.8434 141.657 34.3431C140.157 32.8429 138.122 32 136 32ZM128 64H112V48H128V64Z" fill="#F5DEB3"/>
<path d="M160 32H272V48H160V32Z" fill="#F5DEB3"/>
<path d="M288 32H304V48H288V32Z" fill="#F5DEB3"/>
<path d="M160 64H272V80H160V64Z" fill="#F5DEB3"/>
<path d="M288 64H304V80H288V64Z" fill="#F5DEB3"/>
<path d="M72 288H40C37.8783 288 35.8434 288.843 34.3431 290.343C32.8429 291.843 32 293.878 32 296V328C32 330.122 32.8429 332.157 34.3431 333.657C35.8434 335.157 37.8783 336 40 336H72C74.1217 336 76.1566 335.157 77.6569 333.657C79.1571 332.157 80 330.122 80 328V296C80 293.878 79.1571 291.843 77.6569 290.343C76.1566 288.843 74.1217 288 72 288ZM64 320H48V304H64V320Z" fill="#F5DEB3"/>
<path d="M136 288H104C101.878 288 99.8434 288.843 98.3431 290.343C96.8429 291.843 96 293.878 96 296V328C96 330.122 96.8429 332.157 98.3431 333.657C99.8434 335.157 101.878 336 104 336H136C138.122 336 140.157 335.157 141.657 333.657C143.157 332.157 144 330.122 144 328V296C144 293.878 143.157 291.843 141.657 290.343C140.157 288.843 138.122 288 136 288ZM128 320H112V304H128V320Z" fill="#F5DEB3"/>
</svg>
