<svg width="703" height="474" viewBox="0 0 703 474" fill="none" xmlns="http://www.w3.org/2000/svg">
<g id="graduation">
<path id="Vector" d="M223.266 354.691L207.029 341.284L162.338 395.407L178.575 408.814L223.266 354.691Z" fill="#F55F44"/>
<path id="Vector_2" d="M188.493 413.735L208.991 418.554L225.056 350.228L204.558 345.409L188.493 413.735Z" fill="#F55F44"/>
<path id="Vector_3" d="M32.7567 190.078L0 256.098L438.556 473.696L471.313 407.677L32.7567 190.078Z" fill="url(#paint0_linear)"/>
<path id="Vector_4" d="M439.336 472.124C430.752 468.006 -5.50759 251.406 0.77996 254.526C24.9937 217.568 31.9769 191.65 31.9769 191.65L470.533 409.249C470.533 409.249 455.132 436.278 439.336 472.124Z" fill="#F5F5F5"/>
<path id="Vector_5" d="M258.328 303.959L225.319 287.581L194.122 350.456L227.132 366.834L258.328 303.959Z" fill="#F55F44"/>
<path id="Vector_6" d="M191.518 293.5L167.518 329.5C167.518 329.5 175.518 366.5 352.518 365.5C529.518 364.5 543.518 329.5 543.518 329.5L510.518 281.5L409.518 212.5L191.518 293.5Z" fill="#40B3A2"/>
<path id="Vector_7" d="M702.017 160L387.017 299L3.01746 160L355.017 0L527.807 79.67L533.997 82.53L702.017 160Z" fill="#40B3A2"/>
<path id="Vector_8" d="M540.517 193.32L534.517 193.68L527.807 79.67L533.997 82.53L540.517 193.32Z" fill="#F5F5F5"/>
<path id="Vector_9" d="M195.518 159.5L167.518 329.5C167.518 329.5 368.518 264.5 543.518 329.5L517.518 149.5C517.518 149.5 282.518 120.5 195.518 159.5Z" fill="#85CDCA"/>
<path id="Vector_10" d="M540.018 228C556.034 228 569.018 219.046 569.018 208C569.018 196.954 556.034 188 540.018 188C524.002 188 511.018 196.954 511.018 208C511.018 219.046 524.002 228 540.018 228Z" fill="#F5F5F5"/>
</g>
<defs>
<linearGradient id="paint0_linear" x1="219.278" y1="364.897" x2="252.035" y2="298.878" gradientUnits="userSpaceOnUse">
<stop stop-color="#808080" stop-opacity="0.25"/>
<stop offset="0.53514" stop-color="#808080" stop-opacity="0.12"/>
<stop offset="1" stop-color="#808080" stop-opacity="0.1"/>
</linearGradient>
</defs>
</svg>
