<svg width="301" height="366" viewBox="0 0 301 366" fill="none" xmlns="http://www.w3.org/2000/svg">
<path d="M34.9023 103.527L46.8573 245.09H205.76L200.561 303.567L150.548 317.111L98.4594 302.519L97.1513 266.06H48.6303L54.7043 337.94L150.548 365.027L246.391 337.94L258.269 197.294H90.9273L86.7743 151.455L86.7733 151.453L262.225 150.534L266.193 103.527H34.9023Z" fill="#F5DEB3"/>
<path d="M45.1607 0.796875V25.1179H21.9227V0.796875H0.304688V70.5139H21.9227V47.8159H45.1607V70.5139H66.7787V0.796875H45.1607Z" fill="#F5DEB3"/>
<path d="M143.523 0.796875H77.0469V25.1179H98.6649V71.0559H121.905V25.1179H143.523V0.796875Z" fill="#F5DEB3"/>
<path d="M267.283 48.8939V1.33594H244.043V48.8939V71.0539H267.283H300.789V48.8939H267.283Z" fill="#F5DEB3"/>
<path d="M208.915 1.33594L192.703 26.1959L176.489 1.33594H153.25V71.0539H176.489V36.4639L192.703 61.3259L208.915 36.4639V71.0539H232.155V1.33594H208.915Z" fill="#F5DEB3"/>
</svg>
