<svg width="305" height="305" viewBox="0 0 305 305" fill="none" xmlns="http://www.w3.org/2000/svg">
<path d="M150.99 56.5125C136.897 66.4245 120.924 77.6595 112.366 96.2465C97.5006 128.672 142.784 164.045 144.719 165.535C145.169 165.882 145.707 166.053 146.244 166.053C146.814 166.053 147.385 165.858 147.849 165.47C148.748 164.718 149.003 163.441 148.463 162.401C148.299 162.085 132.045 130.513 132.649 107.862C132.863 99.9745 143.903 91.0255 155.591 81.5505C166.296 72.8725 178.43 63.0365 185.53 51.5305C201.116 26.2035 183.793 1.29949 183.616 1.05149C182.928 0.0854914 181.658 -0.265509 180.572 0.211491C179.487 0.689491 178.886 1.86349 179.134 3.02249C179.169 3.18649 182.538 19.6555 173.164 36.6225C169.301 43.6335 160.816 49.6025 150.99 56.5125Z" fill="#F5DEB3"/>
<path d="M210.368 67.6809C211.362 66.9319 211.654 65.5659 211.052 64.4759C210.45 63.3859 209.139 62.9049 207.975 63.3469C205.581 64.2569 149.348 85.9319 149.348 112.123C149.348 130.176 157.06 139.714 162.691 146.679C164.9 149.41 166.807 151.769 167.435 153.783C169.204 159.587 165.013 170.077 163.251 173.629C162.743 174.651 162.992 175.888 163.856 176.634C164.323 177.037 164.906 177.241 165.49 177.241C165.987 177.241 166.486 177.093 166.917 176.793C167.884 176.12 190.547 160.097 186.482 140.792C184.968 133.455 181.362 128.093 178.18 123.362C173.251 116.033 169.691 110.738 175.092 100.959C181.422 89.5549 210.079 67.8979 210.368 67.6809Z" fill="#F5DEB3"/>
<path d="M63.9931 177.66C63.0291 180.545 63.4841 183.41 65.3081 185.943C71.4041 194.405 92.9962 199.066 126.11 199.066C126.112 199.066 126.113 199.066 126.114 199.066C130.601 199.066 135.338 198.978 140.19 198.804C193.133 196.908 212.77 180.415 213.58 179.714C214.463 178.95 214.699 177.677 214.15 176.647C213.601 175.618 212.417 175.101 211.286 175.412C192.641 180.503 157.823 182.31 133.673 182.31C106.65 182.31 92.8881 180.364 89.5191 178.927C91.2481 176.553 101.911 172.314 115.124 169.715C116.387 169.467 117.255 168.301 117.13 167.02C117.005 165.739 115.929 164.762 114.642 164.762C106.896 164.763 68.0531 165.385 63.9931 177.66Z" fill="#F5DEB3"/>
<path d="M241.15 160.672C230.23 160.672 219.875 166.144 219.439 166.377C218.429 166.918 217.917 168.076 218.194 169.188C218.472 170.299 219.471 171.08 220.617 171.081C220.849 171.082 243.91 171.27 245.999 184.446C247.849 195.813 224.179 214.231 214.902 220.369C213.9 221.032 213.511 222.314 213.976 223.421C214.371 224.364 215.29 224.954 216.28 224.954C216.453 224.954 216.628 224.936 216.802 224.898C219.004 224.428 270.657 213.046 265.196 182.971C261.864 164.54 250.28 160.672 241.15 160.672Z" fill="#F5DEB3"/>
<path d="M205.726 216.69C205.906 215.726 205.505 214.746 204.703 214.184L192.318 205.509C191.714 205.086 190.951 204.953 190.242 205.141C190.113 205.175 177.161 208.579 158.357 210.667C150.894 211.504 142.535 211.946 134.182 211.946C115.383 211.946 103.091 209.737 101.301 208.117C101.064 207.662 101.139 207.455 101.181 207.34C101.506 206.435 103.249 205.36 104.373 204.935C105.614 204.476 106.283 203.128 105.897 201.862C105.512 200.596 104.207 199.85 102.919 200.16C90.4953 203.158 84.4203 207.351 84.8623 212.621C85.6473 221.964 107.29 226.76 125.587 228.029C128.218 228.209 131.064 228.301 134.043 228.301C134.045 228.301 134.046 228.301 134.048 228.301C164.473 228.301 203.477 218.755 203.867 218.658C204.819 218.423 205.545 217.654 205.726 216.69Z" fill="#F5DEB3"/>
<path d="M112.352 236.746C113.29 236.135 113.706 234.976 113.373 233.908C113.041 232.84 112.042 232.139 110.92 232.153C109.255 232.197 94.6282 232.857 93.6042 242.17C93.2942 244.953 94.0912 247.495 95.9742 249.726C101.226 255.95 115.402 259.649 139.306 261.036C142.134 261.205 145.006 261.29 147.845 261.29C178.235 261.29 198.702 251.775 199.559 251.37C200.39 250.977 200.938 250.161 200.987 249.243C201.036 248.326 200.578 247.455 199.794 246.976L184.142 237.421C183.599 237.09 182.949 236.98 182.329 237.107C182.23 237.128 172.292 239.189 157.294 241.226C154.456 241.611 150.902 241.807 146.732 241.807C131.75 241.807 115.086 239.359 111.89 237.757C111.844 237.456 111.903 237.076 112.352 236.746Z" fill="#F5DEB3"/>
<path d="M133.683 290.018C203.293 289.959 240.654 277.58 247.851 269.79C250.399 267.033 250.674 264.424 250.457 262.72C249.922 258.526 246.103 255.959 245.669 255.68C244.624 255.008 243.222 255.184 242.407 256.124C241.594 257.065 241.575 258.438 242.391 259.377C242.83 259.942 243.084 260.887 241.8 262.172C238.923 264.859 209.903 273.016 161.585 275.466C154.966 275.811 148.024 275.985 140.952 275.986C97.6895 275.986 66.0285 270.061 61.8725 266.607C63.4755 264.306 74.6735 260.628 86.5835 258.549C87.9255 258.315 88.8325 257.05 88.6245 255.704C88.4165 254.358 87.1755 253.431 85.8195 253.608C85.4835 253.653 84.3445 253.723 83.0235 253.803C63.3725 255.003 40.6635 257.678 39.4785 267.802C39.1185 270.888 40.0355 273.688 42.2045 276.126C47.5115 282.089 62.7665 290.017 133.68 290.017C133.682 290.018 133.682 290.018 133.683 290.018Z" fill="#F5DEB3"/>
<path d="M261.525 271.985C260.541 271.53 259.379 271.76 258.644 272.552C258.541 272.662 248.076 283.606 216.609 290.032C204.562 292.446 181.949 293.67 149.398 293.67C116.786 293.67 85.7548 292.387 85.4448 292.374C84.1488 292.311 83.0398 293.253 82.8638 294.529C82.6868 295.805 83.5088 297.006 84.7608 297.304C85.0838 297.381 117.605 305 162.071 305C183.398 305 204.151 303.267 223.755 299.849C260.308 293.441 262.867 275.316 262.958 274.548C263.085 273.474 262.507 272.44 261.525 271.985Z" fill="#F5DEB3"/>
</svg>
