<svg width="512" height="512" viewBox="0 0 512 512" fill="none" xmlns="http://www.w3.org/2000/svg">
<path d="M116 296C116 265.672 140.672 241 171 241H341C354.785 241 366 229.785 366 216V75C366 33.6445 332.355 0 291 0H221C179.645 0 146 33.6445 146 75V116H256C264.285 116 271 122.715 271 131C271 139.285 264.285 146 256 146H75C33.6445 146 0 179.645 0 221V291C0 332.355 33.6445 366 75 366H116V296ZM221 76C212.715 76 206 69.2852 206 61C206 52.7148 212.715 46 221 46C229.285 46 236 52.7148 236 61C236 69.2852 229.285 76 221 76Z" fill="#F5DEB3"/>
<path d="M437 146H396V216C396 246.328 371.328 271 341 271H171C157.215 271 146 282.215 146 296V437C146 478.355 179.645 512 221 512H291C332.355 512 366 478.355 366 437V396H256C247.715 396 241 389.285 241 381C241 372.715 247.715 366 256 366H437C478.355 366 512 332.355 512 291V221C512 179.645 478.355 146 437 146ZM291 436C299.285 436 306 442.715 306 451C306 459.285 299.285 466 291 466C282.715 466 276 459.285 276 451C276 442.715 282.715 436 291 436Z" fill="#F5DEB3"/>
</svg>
