<svg width="512" height="512" viewBox="0 0 512 512" fill="none" xmlns="http://www.w3.org/2000/svg">
<g clip-path="url(#clip0)">
<path d="M394.668 490.332H53.332C23.9141 490.332 0 466.418 0 437V74.332C0 44.9141 23.9141 21 53.332 21H394.668C424.086 21 448 44.9141 448 74.332V202.332C448 208.223 443.223 213 437.332 213C431.445 213 426.668 208.223 426.668 202.332V74.332C426.668 56.6914 412.309 42.332 394.668 42.332H53.332C35.6914 42.332 21.332 56.6914 21.332 74.332V437C21.332 454.645 35.6914 469 53.332 469H394.668C412.309 469 426.668 454.645 426.668 437V373C426.668 367.113 431.445 362.332 437.332 362.332C443.223 362.332 448 367.113 448 373V437C448 466.418 424.086 490.332 394.668 490.332V490.332Z" fill="#F5DEB3"/>
<path d="M437.332 127.668H10.668C4.77734 127.668 0 122.887 0 117C0 111.113 4.77734 106.332 10.668 106.332H437.332C443.223 106.332 448 111.113 448 117C448 122.887 443.223 127.668 437.332 127.668V127.668Z" fill="#F5DEB3"/>
<path d="M64 74.332C64 80.2227 59.2227 85 53.332 85C47.4414 85 42.668 80.2227 42.668 74.332C42.668 68.4414 47.4414 63.668 53.332 63.668C59.2227 63.668 64 68.4414 64 74.332Z" fill="#F5DEB3"/>
<path d="M106.668 74.332C106.668 80.2227 101.891 85 96 85C90.1094 85 85.332 80.2227 85.332 74.332C85.332 68.4414 90.1094 63.668 96 63.668C101.891 63.668 106.668 68.4414 106.668 74.332Z" fill="#F5DEB3"/>
<path d="M149.332 74.332C149.332 80.2227 144.559 85 138.668 85C132.777 85 128 80.2227 128 74.332C128 68.4414 132.777 63.668 138.668 63.668C144.559 63.668 149.332 68.4414 149.332 74.332Z" fill="#F5DEB3"/>
<path d="M501.332 341H458.668C452.777 341 448 336.223 448 330.332V245C448 239.113 452.777 234.332 458.668 234.332C464.555 234.332 469.332 239.113 469.332 245V319.668H501.332C507.223 319.668 512 324.445 512 330.332C512 336.223 507.223 341 501.332 341V341Z" fill="#F5DEB3"/>
<path d="M416 341.001C410.113 341.001 405.332 336.223 405.332 330.333V277.001L392.535 294.067C388.5 299.442 379.5 299.442 375.445 294.067L362.668 277.001V330.333C362.668 336.223 357.887 341.001 352 341.001C346.113 341.001 341.332 336.223 341.332 330.333V245.001C341.332 240.415 344.277 236.341 348.629 234.868C352.961 233.501 357.781 234.911 360.555 238.602L384.02 269.895L407.488 238.602C410.262 234.911 415.082 233.524 419.414 234.868C423.723 236.341 426.668 240.415 426.668 245.001V330.333C426.668 336.223 421.887 341.001 416 341.001V341.001Z" fill="#F5DEB3"/>
<path d="M245.331 340.999C243.112 340.999 240.85 340.315 238.932 338.866C234.217 335.323 233.257 328.647 236.776 323.932L300.776 238.6C304.339 233.885 311.018 232.924 315.71 236.444C320.424 239.987 321.385 246.663 317.866 251.378L253.866 336.71C251.776 339.526 248.553 340.999 245.331 340.999V340.999Z" fill="#F5DEB3"/>
<path d="M309.332 341.001C306.113 341.001 302.891 339.528 300.801 336.735L236.801 251.399C233.281 246.684 234.238 240.008 238.953 236.465C243.668 232.946 250.324 233.887 253.887 238.622L317.887 323.954C321.406 328.669 320.449 335.348 315.734 338.887C313.813 340.317 311.551 341.001 309.332 341.001V341.001Z" fill="#F5DEB3"/>
</g>
<defs>
<clipPath id="clip0">
<rect width="512" height="512" fill="white"/>
</clipPath>
</defs>
</svg>
